arm28_optimize_states
version=1
nRows=27
nColumns=21
inDegrees=yes

# SIMM Motion File Header:
name arm28_optimize_states
datacolumns 21
datarows 27
otherdata 1
range 0.00000000 0.00108701
endheader
time	r_shoulder_elev	r_elbow_flex	r_shoulder_elev_u	r_elbow_flex_u	TRIlong.activation	TRIlong.fiber_length	TRIlat.activation	TRIlat.fiber_length	TRImed.activation	TRImed.fiber_length	BIClong.activation	BIClong.fiber_length	BICshort.activation	BICshort.fiber_length	BRA.activation	BRA.fiber_length	DeltAnt.activation	DeltAnt.fiber_length	DeltPost.activation	DeltPost.fiber_length
      0.00000000	      0.00000000	     20.00000000	      0.00000000	      0.00000000	      0.05000000	      0.10000000	      0.05000000	      0.10000000	      0.05000000	      0.10000000	      0.05000000	      0.10000000	      0.05000000	      0.10000000	      0.05000000	      0.10000000	      0.05000000	      0.10000000	      0.05000000	      0.10000000
      0.00000132	      0.00001250	     19.99997404	     18.45516806	    -38.31230818	      0.04999924	      0.10172172	      0.04999924	      0.09999957	      0.04999924	      0.09999957	      0.04999924	      0.10061841	      0.04999924	      0.10112307	      0.04999924	      0.09999855	      0.04999924	      0.10840932	      0.04999924	      0.10058374
      0.00000264	      0.00004767	     19.99990104	     34.38484318	    -71.38894430	      0.04999848	      0.10335238	      0.04999848	      0.09999914	      0.04999848	      0.09999914	      0.04999848	      0.10122543	      0.04999848	      0.10220704	      0.04999848	      0.09999711	      0.04999848	      0.11526629	      0.04999848	      0.10112548
      0.00000396	      0.00010247	     19.99978725	     48.23691838	   -100.15751223	      0.04999772	      0.10489973	      0.04999772	      0.09999870	      0.04999772	      0.09999870	      0.04999772	      0.10182141	      0.04999772	      0.10325405	      0.04999772	      0.09999566	      0.04999772	      0.12099903	      0.04999772	      0.10162839
      0.00000573	      0.00020180	     19.99958100	     64.03796041	   -132.98121914	      0.04999671	      0.10684489	      0.04999671	      0.09999813	      0.04999671	      0.09999813	      0.04999671	      0.10259943	      0.04999671	      0.10459598	      0.04999671	      0.09999373	      0.04999671	      0.12733982	      0.04999671	      0.10224356
      0.00000792	      0.00036058	     19.99925124	     80.23374101	   -166.63430182	      0.04999545	      0.10909539	      0.04999545	      0.09999741	      0.04999545	      0.09999741	      0.04999545	      0.10354186	      0.04999545	      0.10618503	      0.04999545	      0.09999133	      0.04999545	      0.13367966	      0.04999545	      0.10292909
      0.00001075	      0.00061179	     19.99872948	     96.67782287	   -200.81476552	      0.04999382	      0.11175304	      0.04999382	      0.09999648	      0.04999382	      0.09999648	      0.04999382	      0.10471755	      0.04999382	      0.10811349	      0.04999382	      0.09998823	      0.04999382	      0.14001406	      0.04999382	      0.10369846
      0.00001479	      0.00103952	     19.99784095	    113.74714611	   -236.30946849	      0.04999150	      0.11514125	      0.04999150	      0.09999516	      0.04999150	      0.09999516	      0.04999150	      0.10632512	      0.04999150	      0.11065782	      0.04999150	      0.09998381	      0.04999150	      0.14655547	      0.04999150	      0.10460896
      0.00001950	      0.00160891	     19.99665796	    126.98239616	   -263.84264299	      0.04998879	      0.11857483	      0.04998879	      0.09999362	      0.04998879	      0.09999362	      0.04998879	      0.10809587	      0.04998879	      0.11334233	      0.04998879	      0.09997866	      0.04998879	      0.15167602	      0.04998879	      0.10544244
      0.00002421	      0.00222871	     19.99537008	    135.48859335	   -281.54039682	      0.04998608	      0.12154985	      0.04998608	      0.09999208	      0.04998608	      0.09999208	      0.04998608	      0.10976543	      0.04998608	      0.11576467	      0.04998608	      0.09997351	      0.04998608	      0.15504562	      0.04998608	      0.10608547
      0.00002893	      0.00288083	     19.99401497	    140.92091668	   -292.83692572	      0.04998337	      0.12414108	      0.04998337	      0.09999054	      0.04998337	      0.09999054	      0.04998337	      0.11134150	      0.04998337	      0.11795758	      0.04998337	      0.09996836	      0.04998337	      0.15727442	      0.04998337	      0.10658178
      0.00003512	      0.00376788	     19.99217169	    145.13934464	   -301.58963492	      0.04997981	      0.12705903	      0.04997981	      0.09998851	      0.04997981	      0.09998851	      0.04997981	      0.11328205	      0.04997981	      0.12053534	      0.04997981	      0.09996160	      0.04997981	      0.15910385	      0.04997981	      0.10706637
      0.00004131	      0.00467435	     19.99028822	    147.38191162	   -306.20978292	      0.04997625	      0.12951562	      0.04997625	      0.09998648	      0.04997625	      0.09998648	      0.04997625	      0.11508605	      0.04997625	      0.12281242	      0.04997625	      0.09995484	      0.04997625	      0.16017050	      0.04997625	      0.10741145
      0.00004750	      0.00559094	     19.98838404	    148.51607337	   -308.50289423	      0.04997270	      0.13159000	      0.04997270	      0.09998446	      0.04997270	      0.09998446	      0.04997270	      0.11676483	      0.04997270	      0.12482900	      0.04997270	      0.09994809	      0.04997270	      0.16079234	      0.04997270	      0.10765727
      0.00005601	      0.00685726	     19.98575407	    149.13579840	   -309.67190732	      0.04996781	      0.13392929	      0.04996781	      0.09998168	      0.04996781	      0.09998168	      0.04996781	      0.11888378	      0.04996781	      0.12723392	      0.04996781	      0.09993882	      0.04996781	      0.16124706	      0.04996781	      0.10788411
      0.00006451	      0.00812637	     19.98311943	    149.24840435	   -309.76068036	      0.04996292	      0.13579215	      0.04996292	      0.09997889	      0.04996292	      0.09997889	      0.04996292	      0.12080662	      0.04996292	      0.12927941	      0.04996292	      0.09992956	      0.04996292	      0.16146374	      0.04996292	      0.10802674
      0.00007302	      0.00939552	     19.98048603	    149.18017937	   -309.45677101	      0.04995804	      0.13727676	      0.04995804	      0.09997611	      0.04995804	      0.09997611	      0.04995804	      0.12255255	      0.04995804	      0.13102196	      0.04995804	      0.09992030	      0.04995804	      0.16157539	      0.04995804	      0.10811910
      0.00008521	      0.01121350	     19.97671633	    149.01545836	   -308.86801615	      0.04995104	      0.13889598	      0.04995104	      0.09997212	      0.04995104	      0.09997212	      0.04995104	      0.12477975	      0.04995104	      0.13308225	      0.04995104	      0.09990705	      0.04995104	      0.16166643	      0.04995104	      0.10820722
      0.00010552	      0.01423645	     19.97045479	    148.75049546	   -307.90986475	      0.04993938	      0.14065857	      0.04993938	      0.09996548	      0.04993938	      0.09996548	      0.04993938	      0.12786875	      0.04993938	      0.13562367	      0.04993938	      0.09988502	      0.04993938	      0.16174442	      0.04993938	      0.10829718
      0.00014967	      0.02079601	     19.95689385	    148.43282564	   -306.51853401	      0.04991404	      0.14235420	      0.04991404	      0.09995104	      0.04991404	      0.09995104	      0.04991404	      0.13254592	      0.04991404	      0.13871565	      0.04991404	      0.09983725	      0.04991404	      0.16180571	      0.04991404	      0.10839264
      0.00019383	      0.02734888	     19.94337325	    148.42886851	   -306.04105134	      0.04988872	      0.14290268	      0.04988872	      0.09993659	      0.04988872	      0.09993659	      0.04988872	      0.13532624	      0.04988872	      0.14006668	      0.04988872	      0.09978969	      0.04988872	      0.16182156	      0.04988872	      0.10843553
      0.00025347	      0.03620848	     19.92511671	    148.70630164	   -306.29385827	      0.04985455	      0.14321229	      0.04985455	      0.09991709	      0.04985455	      0.09991709	      0.04985455	      0.13734558	      0.04985455	      0.14080500	      0.04985455	      0.09972576	      0.04985455	      0.16183037	      0.04985455	      0.10846382
      0.00034236	      0.04945486	     19.89784215	    149.32546230	   -307.39488958	      0.04980367	      0.14340434	      0.04980367	      0.09988802	      0.04980367	      0.09988802	      0.04980367	      0.13858455	      0.04980367	      0.14126274	      0.04980367	      0.09963115	      0.04980367	      0.16183802	      0.04980367	      0.10848499
      0.00043126	      0.06275863	     19.87045843	    149.97685346	   -308.68213933	      0.04975287	      0.14348249	      0.04975287	      0.09985895	      0.04975287	      0.09985895	      0.04975287	      0.13908500	      0.04975287	      0.14147583	      0.04975287	      0.09953733	      0.04975287	      0.16184305	      0.04975287	      0.10849994
      0.00061067	      0.08977625	     19.81485284	    151.18378605	   -311.15614396	      0.04965056	      0.14353314	      0.04965056	      0.09980030	      0.04965056	      0.09980030	      0.04965056	      0.13948380	      0.04965056	      0.14165751	      0.04965056	      0.09935035	      0.04965056	      0.16184945	      0.04965056	      0.10852621
      0.00084884	      0.12594685	     19.74040455	    152.49254345	   -313.89049336	      0.04951519	      0.14356100	      0.04951519	      0.09972246	      0.04951519	      0.09972246	      0.04951519	      0.13964479	      0.04951519	      0.14174013	      0.04951519	      0.09910686	      0.04951519	      0.16185394	      0.04951519	      0.10855918
      0.00108701	      0.16239021	     19.66538386	    153.47982576	   -315.97037434	      0.04938032	      0.14357923	      0.04938032	      0.09964464	      0.04938032	      0.09964464	      0.04938032	      0.13969959	      0.04938032	      0.14178371	      0.04938032	      0.09886858	      0.04938032	      0.16185594	      0.04938032	      0.10859187
